<svg viewBox="0 0 20 18.54" xmlns="http://www.w3.org/2000/svg">
  <g style="fill: #263A11; stroke: #263A11;">
    <path d="M3.31 4.7h8.5l-1.3 1.37h-7.2zm0 4.85h3.91l1.3-1.37H3.31zm0 3.47h3.45l.06-1.37H3.31zM17.16 1.29l-.94 1-1.43 1.5L13 5.66l-.49.51-2 2.11-1.26 1.37-.81.86-.06 1.24-.07 1.37v.51l3-.44 3.25-3.43.16-.17L20 4zm-.59 12l-.19-3.44L15 11.26a.61.61 0 0 0-.16.45l.07 1a.57.57 0 0 1-.15.43l-3.26 3.58a.57.57 0 0 1-.43.19H2.54a.58.58 0 0 1-.54-.58V2.53a.58.58 0 0 1 .58-.59h11a.59.59 0 0 0 .42-.17L15.7 0H.58A.58.58 0 0 0 0 .58V18a.58.58 0 0 0 .58.58H11.8a.57.57 0 0 0 .43-.19l4.19-4.66a.53.53 0 0 0 .15-.46z"></path>
  </g>
  <g style="fill: #FFF9EB;">
    <path d="M3.31 4.7h8.5l-1.3 1.37h-7.2zm0 4.85h3.91l1.3-1.37H3.31zm0 3.47h3.45l.06-1.37H3.31zM17.16 1.29l-.94 1-1.43 1.5L13 5.66l-.49.51-2 2.11-1.26 1.37-.81.86-.06 1.24-.07 1.37v.51l3-.44 3.25-3.43.16-.17L20 4zm-.59 12l-.19-3.44L15 11.26a.61.61 0 0 0-.16.45l.07 1a.57.57 0 0 1-.15.43l-3.26 3.58a.57.57 0 0 1-.43.19H2.54a.58.58 0 0 1-.54-.58V2.53a.58.58 0 0 1 .58-.59h11a.59.59 0 0 0 .42-.17L15.7 0H.58A.58.58 0 0 0 0 .58V18a.58.58 0 0 0 .58.58H11.8a.57.57 0 0 0 .43-.19l4.19-4.66a.53.53 0 0 0 .15-.46z"></path>
  </g>
</svg>